<svg width="23" height="29" viewBox="0 0 23 29" fill="none" xmlns="http://www.w3.org/2000/svg">
<path d="M11.4998 28.355C12.2529 28.3529 12.9746 28.0528 13.5071 27.5203C14.0396 26.9878 14.3397 26.2661 14.3418 25.513H8.65784C8.6577 25.8863 8.73112 26.2559 8.8739 26.6007C9.01668 26.9456 9.22602 27.259 9.48995 27.5229C9.75388 27.7868 10.0672 27.9962 10.4121 28.1389C10.757 28.2817 11.1266 28.3551 11.4998 28.355V28.355ZM20.0258 19.829V12.729C20.0258 8.36701 17.6958 4.71501 13.6318 3.74801V2.77701C13.6318 2.2117 13.4073 1.66954 13.0075 1.26981C12.6078 0.870076 12.0656 0.645508 11.5003 0.645508C10.935 0.645508 10.3929 0.870076 9.99314 1.26981C9.5934 1.66954 9.36884 2.2117 9.36884 2.77701V3.74601C5.29084 4.71201 2.97484 8.34601 2.97484 12.727V19.827L0.131836 22.671V24.092H22.8678V22.671L20.0258 19.829Z" fill="white"/>
</svg>
