<svg width="20" height="20" viewBox="0 0 20 20" fill="none" xmlns="http://www.w3.org/2000/svg">
<path d="M6 16C5.60444 16 5.21776 16.1173 4.88886 16.3371C4.55996 16.5568 4.30362 16.8692 4.15224 17.2346C4.00087 17.6001 3.96126 18.0022 4.03843 18.3902C4.1156 18.7781 4.30608 19.1345 4.58579 19.4142C4.86549 19.6939 5.22186 19.8844 5.60982 19.9616C5.99778 20.0387 6.39991 19.9991 6.76537 19.8478C7.13082 19.6964 7.44318 19.44 7.66294 19.1111C7.8827 18.7822 8 18.3956 8 18C8 17.4696 7.78929 16.9609 7.41421 16.5858C7.03914 16.2107 6.53043 16 6 16ZM0 0V2H2L5.6 9.59L4.25 12.04C4.08458 12.3328 3.9984 12.6637 4 13C4.00158 13.5299 4.2128 14.0377 4.58753 14.4125C4.96227 14.7872 5.47005 14.9984 6 15H18V13H6.42C6.3871 13.0003 6.35447 12.994 6.32401 12.9815C6.29356 12.969 6.2659 12.9506 6.24263 12.9274C6.21936 12.9041 6.20096 12.8764 6.18849 12.846C6.17602 12.8155 6.16973 12.7829 6.17 12.75L6.2 12.63L7.1 11H14.55C14.9073 11.0011 15.2583 10.9061 15.5662 10.7249C15.8741 10.5436 16.1276 10.2829 16.3 9.97L19.88 3.48C19.9605 3.33295 20.0018 3.16765 20 3C20 2.73478 19.8946 2.48043 19.7071 2.29289C19.5196 2.10536 19.2652 2 19 2H4.21L3.27 0H0ZM16 16C15.6044 16 15.2178 16.1173 14.8889 16.3371C14.56 16.5568 14.3036 16.8692 14.1522 17.2346C14.0009 17.6001 13.9613 18.0022 14.0384 18.3902C14.1156 18.7781 14.3061 19.1345 14.5858 19.4142C14.8655 19.6939 15.2219 19.8844 15.6098 19.9616C15.9978 20.0387 16.3999 19.9991 16.7654 19.8478C17.1308 19.6964 17.4432 19.44 17.6629 19.1111C17.8827 18.7822 18 18.3956 18 18C18 17.4696 17.7893 16.9609 17.4142 16.5858C17.0391 16.2107 16.5304 16 16 16Z" fill="white"/>
</svg>
