<svg width="21" height="19" viewBox="0 0 21 19" fill="none" xmlns="http://www.w3.org/2000/svg">
<path d="M10.5003 18.9999L9.05026 17.6799C3.90026 13.0099 0.50026 9.92992 0.50026 6.14992C0.493179 5.42568 0.630604 4.7073 0.904497 4.03681C1.17839 3.36632 1.58325 2.75719 2.09539 2.24505C2.60753 1.73291 3.21666 1.32805 3.88715 1.05416C4.55764 0.780262 5.27602 0.642837 6.00026 0.649919C6.85613 0.656446 7.70066 0.846375 8.47692 1.2069C9.25317 1.56743 9.94312 2.09018 10.5003 2.73992C11.0574 2.09018 11.7473 1.56743 12.5236 1.2069C13.2999 0.846375 14.1444 0.656446 15.0003 0.649919C15.7245 0.642837 16.4429 0.780262 17.1134 1.05416C17.7839 1.32805 18.393 1.73291 18.9051 2.24505C19.4173 2.75719 19.8221 3.36632 20.096 4.03681C20.3699 4.7073 20.5073 5.42568 20.5003 6.14992C20.5003 9.92992 17.1003 13.0099 11.9503 17.6899L10.5003 18.9999Z" fill="white"/>
</svg>
