<svg width="95" height="93" viewBox="0 0 95 93" fill="none" xmlns="http://www.w3.org/2000/svg">
<path fill-rule="evenodd" clip-rule="evenodd" d="M47.5003 0.208252C21.4284 0.208252 0.291992 20.9343 0.291992 46.4999C0.291992 72.0655 21.4284 92.7916 47.5003 92.7916C73.5722 92.7916 94.7087 72.0655 94.7087 46.4999C94.7087 20.9343 73.5722 0.208252 47.5003 0.208252ZM8.87533 46.4999C8.87533 55.2953 11.9353 63.3922 17.0638 69.8225C20.6655 65.1845 25.312 61.4258 30.6402 58.8401C35.9685 56.2543 41.8342 54.9115 47.7793 54.9166C53.6474 54.9111 59.4394 56.2192 64.7139 58.741C69.9884 61.2629 74.6063 64.9321 78.2158 69.469C81.9343 64.6867 84.438 59.1048 85.5197 53.1852C86.6015 47.2657 86.2302 41.1786 84.4365 35.4277C82.6429 29.6768 79.4785 24.4274 75.2051 20.1138C70.9318 15.8002 65.6723 12.5465 59.862 10.6218C54.0516 8.69712 47.8574 8.15683 41.7918 9.04564C35.7262 9.93444 29.9637 12.2268 24.981 15.733C19.9982 19.2392 15.9386 23.8585 13.1379 29.2087C10.3373 34.5589 8.8761 40.4861 8.87533 46.4999ZM47.5003 84.3749C38.6335 84.388 30.0344 81.3969 23.158 75.9078C25.9258 72.0223 29.6098 68.85 33.8966 66.6607C38.1833 64.4714 42.946 63.3299 47.7793 63.3332C52.5523 63.3295 57.2574 64.4424 61.5037 66.5797C65.7501 68.7169 69.4151 71.8166 72.1946 75.6216C65.2648 81.2889 56.5239 84.3873 47.5003 84.3749Z" fill="#6185D2"/>
</svg>
